<?xml version="1.0" encoding="utf-8"?>
<!-- Generator: Adobe Illustrator 19.0.0, SVG Export Plug-In . SVG Version: 6.00 Build 0)  -->
<svg version="1.1" id="Layer_1" xmlns:sketch="http://www.bohemiancoding.com/sketch/ns"
	 xmlns="http://www.w3.org/2000/svg" xmlns:xlink="http://www.w3.org/1999/xlink" x="0px" y="0px" viewBox="-7 8 40 40"
	 style="enable-background:new -7 8 40 40;" xml:space="preserve">
<style type="text/css">
	.st0{fill:#777777;}
	.st1{fill:#FFFFFF;}
</style>
<title>dots</title>
<desc>Created with Sketch.</desc>
<rect x="-7" y="8" class="st0" width="5" height="5"/>
<rect x="28" y="8" class="st0" width="5" height="5"/>
<rect x="8" y="8" class="st0" width="10" height="5"/>
<rect x="-2" y="8" class="st1" width="10" height="5"/>
<rect x="18" y="8" class="st1" width="10" height="5"/>
<rect x="8" y="43" class="st0" width="10" height="5"/>
<rect x="-2" y="43" class="st1" width="10" height="5"/>
<rect x="18" y="43" class="st1" width="10" height="5"/>
<rect x="-7" y="43" class="st0" width="5" height="5"/>
<rect x="-7" y="23" class="st0" width="5" height="10"/>
<rect x="-7" y="13" class="st1" width="5" height="10"/>
<rect x="-7" y="33" class="st1" width="5" height="10"/>
<rect x="28" y="43" class="st0" width="5" height="5"/>
<rect x="28" y="23" class="st0" width="5" height="10"/>
<rect x="28" y="13" class="st1" width="5" height="10"/>
<rect x="28" y="33" class="st1" width="5" height="10"/>
</svg>
